<svg viewBox="0 0 900 620" fill="none" xmlns="http://www.w3.org/2000/svg">
    <path d="M250 600C383.333 586.667 516.667 586.667 650 600L630 620C510 606.667 390 606.667 270 620L250 600Z"
        fill="#B7B7B7" />
    <path
        d="M455 505C455 502.239 452.761 500 450 500C447.239 500 445 502.239 445 505V595C445 597.761 447.239 600 450 600C452.761 600 455 597.761 455 595V505Z"
        fill="#9B9B9B" />
    <path
        d="M888 0H12C5.37258 0 0 5.37258 0 12V494C0 500.627 5.37258 506 12 506H888C894.627 506 900 500.627 900 494V12C900 5.37258 894.627 0 888 0Z"
        fill="#8D8D8D" />
    <path
        d="M887 5H13C8.58172 5 5 8.58172 5 13V493C5 497.418 8.58172 501 13 501H887C891.418 501 895 497.418 895 493V13C895 8.58172 891.418 5 887 5Z"
        fill="#CFCFCF" fill-opacity="0.819" />
    <path opacity="0.9"
        d="M450 532C451.105 532 452 531.105 452 530C452 528.895 451.105 528 450 528C448.895 528 448 528.895 448 530C448 531.105 448.895 532 450 532Z"
        fill="#0080FF" />
</svg>